<?xml version="1.0" standalone="no"?>
<svg
  width="600"
  height="600"
  viewBox="0 0 600 600"
  xmlns="http://www.w3.org/2000/svg"
>
  <g transform="translate(300,300)">
    <path d="M97.8,-142.2C126.8,-133.6,150.2,-106.5,175.8,-73.5C201.3,-40.6,228.8,-1.9,234.3,41.1C239.7,84.2,223,131.5,183.7,137.2C144.5,142.9,82.7,106.9,38.7,109.9C-5.4,112.9,-31.6,154.8,-50,156C-68.5,157.1,-79.2,117.5,-98.9,89C-118.7,60.4,-147.4,42.9,-166.1,14.5C-184.8,-13.9,-193.4,-53,-170.7,-67.6C-148,-82.2,-94,-72.2,-60.3,-78.7C-26.7,-85.2,-13.3,-108.1,10.5,-124.5C34.4,-140.9,68.8,-150.8,97.8,-142.2Z" fill="#0693e3" />
  </g>
</svg>
  