<?xml version="1.0" standalone="no"?>
<svg
  width="600"
  height="600"
  viewBox="0 0 600 600"
  xmlns="http://www.w3.org/2000/svg"
>
  <g transform="translate(300,300)">
    <path d="M141,-159.9C174.5,-140,187.7,-87.7,199.5,-33.3C211.3,21.1,221.7,77.5,201.3,119.5C181,161.4,129.8,188.8,75.3,210C20.7,231.2,-37.2,246.2,-91.3,233.8C-145.4,221.5,-195.7,181.7,-218.2,131.4C-240.8,81.1,-235.6,20.2,-217.7,-30.9C-199.7,-82,-168.9,-123.3,-130.5,-142.4C-92.1,-161.5,-46.1,-158.2,3.9,-162.8C53.8,-167.4,107.6,-179.9,141,-159.9Z" fill="#0693e3" />
  </g>
</svg>
  